<svg xmlns="http://www.w3.org/2000/svg" xmlns:xlink="http://www.w3.org/1999/xlink" width="350" zoomAndPan="magnify" viewBox="0 0 262.5 60" height="80" preserveAspectRatio="xMidYMid meet" version="1.0"><defs><g/><clipPath id="d12de09711"><path d="M 31.28125 20 L 63 20 L 63 47.21875 L 31.28125 47.21875 Z M 31.28125 20 " clip-rule="nonzero"/></clipPath><clipPath id="cd5b7e8a5e"><path d="M 62 6.046875 L 92.664062 6.046875 L 92.664062 34 L 62 34 Z M 62 6.046875 " clip-rule="nonzero"/></clipPath></defs><g clip-path="url(#d12de09711)"><path fill="#0092ca" d="M 52.011719 39.519531 L 52.011719 43.265625 L 35.039062 35.382812 L 35.039062 32.339844 L 52.011719 24.457031 L 52.011719 28.203125 L 39.179688 33.824219 L 39.179688 33.894531 Z M 62.09375 20.292969 L 33.710938 20.292969 C 32.371094 20.292969 31.285156 21.378906 31.285156 22.71875 L 31.285156 45.003906 C 31.285156 46.34375 32.371094 47.429688 33.710938 47.429688 L 54.214844 47.429688 L 62.09375 20.292969 " fill-opacity="1" fill-rule="nonzero"/></g><g clip-path="url(#cd5b7e8a5e)"><path fill="#000000" d="M 89.097656 21.253906 L 72.125 29.035156 L 72.125 25.285156 L 85.246094 19.664062 L 85.246094 19.59375 L 72.125 13.972656 L 72.125 10.222656 L 89.097656 18.003906 Z M 69.972656 6.058594 L 62.09375 33.199219 L 90.429688 33.199219 C 91.769531 33.199219 92.855469 32.113281 92.855469 30.773438 L 92.855469 8.484375 C 92.855469 7.144531 91.769531 6.058594 90.429688 6.058594 L 69.972656 6.058594 " fill-opacity="1" fill-rule="nonzero"/></g><g fill="#0f1120" fill-opacity="1"><g transform="translate(97.713899, 27.402991)"><g><path d="M 9.375 0 L 8.5625 -2.484375 L 3.625 -2.484375 L 2.8125 0 L -0.28125 0 L 4.46875 -13.203125 L 7.71875 -13.203125 L 12.484375 0 Z M 4.40625 -4.90625 L 7.796875 -4.90625 L 6.09375 -10.140625 Z M 4.40625 -4.90625 "/></g></g></g><g fill="#0f1120" fill-opacity="1"><g transform="translate(110.686062, 27.402991)"><g><path d="M 1.40625 0 L 1.40625 -13.203125 L 4.3125 -13.203125 L 4.3125 0 Z M 1.40625 0 "/></g></g></g><g fill="#0f1120" fill-opacity="1"><g transform="translate(117.163395, 27.402991)"><g><path d="M 5.375 0.171875 C 4.207031 0.171875 3.179688 -0.113281 2.296875 -0.6875 C 1.421875 -1.257812 0.773438 -1.957031 0.359375 -2.78125 L 2.75 -4.265625 C 3 -3.753906 3.347656 -3.335938 3.796875 -3.015625 C 4.253906 -2.703125 4.785156 -2.546875 5.390625 -2.546875 C 5.898438 -2.546875 6.296875 -2.65625 6.578125 -2.875 C 6.867188 -3.101562 7.015625 -3.398438 7.015625 -3.765625 C 7.015625 -4.148438 6.867188 -4.457031 6.578125 -4.6875 C 6.285156 -4.925781 5.90625 -5.125 5.4375 -5.28125 C 4.976562 -5.445312 4.488281 -5.617188 3.96875 -5.796875 C 3.445312 -5.984375 2.957031 -6.222656 2.5 -6.515625 C 2.039062 -6.804688 1.660156 -7.1875 1.359375 -7.65625 C 1.066406 -8.125 0.921875 -8.734375 0.921875 -9.484375 C 0.921875 -10.367188 1.125 -11.097656 1.53125 -11.671875 C 1.945312 -12.242188 2.476562 -12.671875 3.125 -12.953125 C 3.78125 -13.242188 4.457031 -13.390625 5.15625 -13.390625 C 5.976562 -13.390625 6.738281 -13.210938 7.4375 -12.859375 C 8.144531 -12.515625 8.738281 -12.066406 9.21875 -11.515625 L 7.28125 -9.65625 C 6.957031 -10.03125 6.613281 -10.316406 6.25 -10.515625 C 5.882812 -10.710938 5.507812 -10.8125 5.125 -10.8125 C 4.769531 -10.8125 4.46875 -10.722656 4.21875 -10.546875 C 3.976562 -10.367188 3.859375 -10.085938 3.859375 -9.703125 C 3.859375 -9.328125 4.003906 -9.023438 4.296875 -8.796875 C 4.585938 -8.578125 4.960938 -8.382812 5.421875 -8.21875 C 5.890625 -8.0625 6.378906 -7.890625 6.890625 -7.703125 C 7.398438 -7.515625 7.882812 -7.265625 8.34375 -6.953125 C 8.8125 -6.648438 9.191406 -6.242188 9.484375 -5.734375 C 9.773438 -5.222656 9.921875 -4.554688 9.921875 -3.734375 C 9.921875 -2.921875 9.710938 -2.21875 9.296875 -1.625 C 8.878906 -1.039062 8.328125 -0.59375 7.640625 -0.28125 C 6.953125 0.0195312 6.195312 0.171875 5.375 0.171875 Z M 5.375 0.171875 "/></g></g></g><g fill="#0f1120" fill-opacity="1"><g transform="translate(128.374245, 27.402991)"><g><path d="M 5.375 0.171875 C 4.207031 0.171875 3.179688 -0.113281 2.296875 -0.6875 C 1.421875 -1.257812 0.773438 -1.957031 0.359375 -2.78125 L 2.75 -4.265625 C 3 -3.753906 3.347656 -3.335938 3.796875 -3.015625 C 4.253906 -2.703125 4.785156 -2.546875 5.390625 -2.546875 C 5.898438 -2.546875 6.296875 -2.65625 6.578125 -2.875 C 6.867188 -3.101562 7.015625 -3.398438 7.015625 -3.765625 C 7.015625 -4.148438 6.867188 -4.457031 6.578125 -4.6875 C 6.285156 -4.925781 5.90625 -5.125 5.4375 -5.28125 C 4.976562 -5.445312 4.488281 -5.617188 3.96875 -5.796875 C 3.445312 -5.984375 2.957031 -6.222656 2.5 -6.515625 C 2.039062 -6.804688 1.660156 -7.1875 1.359375 -7.65625 C 1.066406 -8.125 0.921875 -8.734375 0.921875 -9.484375 C 0.921875 -10.367188 1.125 -11.097656 1.53125 -11.671875 C 1.945312 -12.242188 2.476562 -12.671875 3.125 -12.953125 C 3.78125 -13.242188 4.457031 -13.390625 5.15625 -13.390625 C 5.976562 -13.390625 6.738281 -13.210938 7.4375 -12.859375 C 8.144531 -12.515625 8.738281 -12.066406 9.21875 -11.515625 L 7.28125 -9.65625 C 6.957031 -10.03125 6.613281 -10.316406 6.25 -10.515625 C 5.882812 -10.710938 5.507812 -10.8125 5.125 -10.8125 C 4.769531 -10.8125 4.46875 -10.722656 4.21875 -10.546875 C 3.976562 -10.367188 3.859375 -10.085938 3.859375 -9.703125 C 3.859375 -9.328125 4.003906 -9.023438 4.296875 -8.796875 C 4.585938 -8.578125 4.960938 -8.382812 5.421875 -8.21875 C 5.890625 -8.0625 6.378906 -7.890625 6.890625 -7.703125 C 7.398438 -7.515625 7.882812 -7.265625 8.34375 -6.953125 C 8.8125 -6.648438 9.191406 -6.242188 9.484375 -5.734375 C 9.773438 -5.222656 9.921875 -4.554688 9.921875 -3.734375 C 9.921875 -2.921875 9.710938 -2.21875 9.296875 -1.625 C 8.878906 -1.039062 8.328125 -0.59375 7.640625 -0.28125 C 6.953125 0.0195312 6.195312 0.171875 5.375 0.171875 Z M 5.375 0.171875 "/></g></g></g><g fill="#0f1120" fill-opacity="1"><g transform="translate(139.585098, 27.402991)"><g><path d="M 9.375 0 L 8.5625 -2.484375 L 3.625 -2.484375 L 2.8125 0 L -0.28125 0 L 4.46875 -13.203125 L 7.71875 -13.203125 L 12.484375 0 Z M 4.40625 -4.90625 L 7.796875 -4.90625 L 6.09375 -10.140625 Z M 4.40625 -4.90625 "/></g></g></g><g fill="#0f1120" fill-opacity="1"><g transform="translate(152.557261, 27.402991)"><g><path d="M 7.59375 0.171875 C 6.65625 0.171875 5.773438 0 4.953125 -0.34375 C 4.140625 -0.695312 3.421875 -1.1875 2.796875 -1.8125 C 2.179688 -2.4375 1.695312 -3.15625 1.34375 -3.96875 C 0.988281 -4.78125 0.8125 -5.660156 0.8125 -6.609375 C 0.8125 -7.546875 0.988281 -8.421875 1.34375 -9.234375 C 1.695312 -10.046875 2.179688 -10.765625 2.796875 -11.390625 C 3.421875 -12.015625 4.140625 -12.503906 4.953125 -12.859375 C 5.773438 -13.210938 6.65625 -13.390625 7.59375 -13.390625 C 8.53125 -13.390625 9.410156 -13.210938 10.234375 -12.859375 C 11.054688 -12.503906 11.773438 -12.015625 12.390625 -11.390625 C 13.003906 -10.765625 13.488281 -10.046875 13.84375 -9.234375 C 14.195312 -8.421875 14.375 -7.546875 14.375 -6.609375 C 14.375 -5.660156 14.195312 -4.78125 13.84375 -3.96875 C 13.488281 -3.15625 13.003906 -2.4375 12.390625 -1.8125 C 11.773438 -1.1875 11.054688 -0.695312 10.234375 -0.34375 C 9.410156 0 8.53125 0.171875 7.59375 0.171875 Z M 7.59375 -2.65625 C 8.34375 -2.65625 9.015625 -2.828125 9.609375 -3.171875 C 10.203125 -3.523438 10.671875 -4 11.015625 -4.59375 C 11.359375 -5.1875 11.53125 -5.859375 11.53125 -6.609375 C 11.53125 -7.347656 11.359375 -8.015625 11.015625 -8.609375 C 10.671875 -9.210938 10.203125 -9.6875 9.609375 -10.03125 C 9.015625 -10.375 8.34375 -10.546875 7.59375 -10.546875 C 6.863281 -10.546875 6.195312 -10.375 5.59375 -10.03125 C 5 -9.6875 4.53125 -9.210938 4.1875 -8.609375 C 3.84375 -8.015625 3.671875 -7.347656 3.671875 -6.609375 C 3.671875 -5.859375 3.84375 -5.1875 4.1875 -4.59375 C 4.53125 -4 5 -3.523438 5.59375 -3.171875 C 6.195312 -2.828125 6.863281 -2.65625 7.59375 -2.65625 Z M 7.59375 -2.65625 "/></g></g></g><g fill="#0f1120" fill-opacity="1"><g transform="translate(168.545662, 27.402991)"><g><path d="M 6.71875 0.171875 C 5.6875 0.171875 4.753906 -0.0195312 3.921875 -0.40625 C 3.097656 -0.789062 2.441406 -1.316406 1.953125 -1.984375 C 1.472656 -2.660156 1.234375 -3.40625 1.234375 -4.21875 L 1.234375 -13.203125 L 4.140625 -13.203125 L 4.140625 -4.78125 C 4.140625 -4.101562 4.390625 -3.535156 4.890625 -3.078125 C 5.390625 -2.628906 6 -2.40625 6.71875 -2.40625 C 7.445312 -2.40625 8.0625 -2.628906 8.5625 -3.078125 C 9.0625 -3.535156 9.3125 -4.101562 9.3125 -4.78125 L 9.3125 -13.203125 L 12.21875 -13.203125 L 12.21875 -4.21875 C 12.21875 -3.40625 11.972656 -2.660156 11.484375 -1.984375 C 11.003906 -1.316406 10.347656 -0.789062 9.515625 -0.40625 C 8.691406 -0.0195312 7.757812 0.171875 6.71875 0.171875 Z M 6.71875 0.171875 "/></g></g></g><g fill="#0f1120" fill-opacity="1"><g transform="translate(182.772755, 27.402991)"><g><path d="M 1.40625 0 L 1.40625 -13.203125 L 4.3125 -13.203125 L 4.3125 0 Z M 1.40625 0 "/></g></g></g><g fill="#1893f8" fill-opacity="1"><g transform="translate(60.035527, 45.886388)"><g><path d="M 1.09375 0 L 1.09375 -8.984375 L 3.546875 -8.984375 C 4.171875 -8.984375 4.753906 -8.863281 5.296875 -8.625 C 5.835938 -8.394531 6.3125 -8.078125 6.71875 -7.671875 C 7.132812 -7.265625 7.457031 -6.785156 7.6875 -6.234375 C 7.925781 -5.691406 8.046875 -5.113281 8.046875 -4.5 C 8.046875 -3.875 7.925781 -3.289062 7.6875 -2.75 C 7.457031 -2.207031 7.132812 -1.726562 6.71875 -1.3125 C 6.3125 -0.90625 5.835938 -0.582031 5.296875 -0.34375 C 4.753906 -0.113281 4.171875 0 3.546875 0 Z M 2.03125 -0.953125 L 3.53125 -0.953125 C 4.207031 -0.953125 4.8125 -1.109375 5.34375 -1.421875 C 5.875 -1.734375 6.296875 -2.15625 6.609375 -2.6875 C 6.921875 -3.21875 7.078125 -3.820312 7.078125 -4.5 C 7.078125 -5.175781 6.921875 -5.773438 6.609375 -6.296875 C 6.296875 -6.828125 5.875 -7.25 5.34375 -7.5625 C 4.8125 -7.875 4.207031 -8.03125 3.53125 -8.03125 L 2.03125 -8.03125 Z M 2.03125 -0.953125 "/></g></g></g><g fill="#1893f8" fill-opacity="1"><g transform="translate(72.821237, 45.886388)"><g><path d="M 1.171875 0 L 1.171875 -8.984375 L 2.125 -8.984375 L 2.125 0 Z M 1.171875 0 "/></g></g></g><g fill="#1893f8" fill-opacity="1"><g transform="translate(80.112416, 45.886388)"><g><path d="M 5.375 -4.765625 L 10 -4.765625 L 10 -4.5 C 10 -3.851562 9.878906 -3.253906 9.640625 -2.703125 C 9.398438 -2.148438 9.066406 -1.660156 8.640625 -1.234375 C 8.222656 -0.804688 7.738281 -0.472656 7.1875 -0.234375 C 6.632812 0.00390625 6.035156 0.125 5.390625 0.125 C 4.753906 0.125 4.15625 0.00390625 3.59375 -0.234375 C 3.03125 -0.472656 2.539062 -0.804688 2.125 -1.234375 C 1.707031 -1.660156 1.378906 -2.148438 1.140625 -2.703125 C 0.898438 -3.253906 0.78125 -3.851562 0.78125 -4.5 C 0.78125 -5.132812 0.898438 -5.726562 1.140625 -6.28125 C 1.378906 -6.832031 1.707031 -7.320312 2.125 -7.75 C 2.539062 -8.175781 3.03125 -8.507812 3.59375 -8.75 C 4.15625 -8.988281 4.753906 -9.109375 5.390625 -9.109375 C 6.253906 -9.109375 7.039062 -8.890625 7.75 -8.453125 C 8.457031 -8.023438 9.003906 -7.460938 9.390625 -6.765625 L 8.5625 -6.3125 C 8.257812 -6.863281 7.820312 -7.304688 7.25 -7.640625 C 6.6875 -7.984375 6.066406 -8.15625 5.390625 -8.15625 C 4.722656 -8.15625 4.109375 -7.988281 3.546875 -7.65625 C 2.992188 -7.332031 2.550781 -6.894531 2.21875 -6.34375 C 1.894531 -5.789062 1.734375 -5.175781 1.734375 -4.5 C 1.734375 -3.8125 1.894531 -3.191406 2.21875 -2.640625 C 2.550781 -2.085938 2.992188 -1.648438 3.546875 -1.328125 C 4.109375 -1.003906 4.722656 -0.84375 5.390625 -0.84375 C 6.003906 -0.84375 6.5625 -0.972656 7.0625 -1.234375 C 7.570312 -1.503906 8 -1.863281 8.34375 -2.3125 C 8.6875 -2.769531 8.898438 -3.285156 8.984375 -3.859375 L 5.375 -3.859375 Z M 5.375 -4.765625 "/></g></g></g><g fill="#1893f8" fill-opacity="1"><g transform="translate(94.889335, 45.886388)"><g><path d="M 1.171875 0 L 1.171875 -8.984375 L 2.125 -8.984375 L 2.125 0 Z M 1.171875 0 "/></g></g></g><g fill="#1893f8" fill-opacity="1"><g transform="translate(102.180514, 45.886388)"><g><path d="M 6.0625 -8.984375 L 6.0625 -8.03125 L 3.578125 -8.03125 L 3.578125 0 L 2.625 0 L 2.625 -8.03125 L 0.140625 -8.03125 L 0.140625 -8.984375 Z M 6.0625 -8.984375 "/></g></g></g><g fill="#1893f8" fill-opacity="1"><g transform="translate(112.391139, 45.886388)"><g><path d="M 6.515625 0 L 5.78125 -2.09375 L 1.78125 -2.09375 L 1.046875 0 L 0 0 L 3.25 -8.984375 L 4.3125 -8.984375 L 7.5625 0 Z M 2.09375 -3.015625 L 5.46875 -3.015625 L 3.796875 -7.84375 Z M 2.09375 -3.015625 "/></g></g></g><g fill="#1893f8" fill-opacity="1"><g transform="translate(123.964163, 45.886388)"><g><path d="M 2.046875 -0.953125 L 5.390625 -0.953125 L 5.390625 0 L 1.09375 0 L 1.09375 -8.984375 L 2.046875 -8.984375 Z M 2.046875 -0.953125 "/></g></g></g><g fill="#1893f8" fill-opacity="1"><g transform="translate(133.501064, 45.886388)"><g/></g></g><g fill="#1893f8" fill-opacity="1"><g transform="translate(141.121617, 45.886388)"><g><path d="M 3.359375 0.125 C 2.691406 0.125 2.09375 -0.0390625 1.5625 -0.375 C 1.039062 -0.71875 0.664062 -1.160156 0.4375 -1.703125 L 1.296875 -2.21875 C 1.460938 -1.8125 1.722656 -1.476562 2.078125 -1.21875 C 2.429688 -0.96875 2.863281 -0.84375 3.375 -0.84375 C 3.875 -0.84375 4.296875 -0.972656 4.640625 -1.234375 C 4.992188 -1.492188 5.171875 -1.863281 5.171875 -2.34375 C 5.171875 -2.707031 5.066406 -3.003906 4.859375 -3.234375 C 4.648438 -3.472656 4.375 -3.671875 4.03125 -3.828125 C 3.695312 -3.992188 3.34375 -4.148438 2.96875 -4.296875 C 2.601562 -4.441406 2.253906 -4.613281 1.921875 -4.8125 C 1.585938 -5.007812 1.316406 -5.257812 1.109375 -5.5625 C 0.898438 -5.863281 0.796875 -6.253906 0.796875 -6.734375 C 0.796875 -7.222656 0.90625 -7.644531 1.125 -8 C 1.351562 -8.351562 1.65625 -8.625 2.03125 -8.8125 C 2.414062 -9.007812 2.835938 -9.109375 3.296875 -9.109375 C 3.816406 -9.109375 4.28125 -9 4.6875 -8.78125 C 5.101562 -8.570312 5.4375 -8.304688 5.6875 -7.984375 L 4.9375 -7.359375 C 4.570312 -7.890625 4.035156 -8.15625 3.328125 -8.15625 C 2.910156 -8.15625 2.539062 -8.039062 2.21875 -7.8125 C 1.90625 -7.59375 1.75 -7.257812 1.75 -6.8125 C 1.75 -6.457031 1.851562 -6.171875 2.0625 -5.953125 C 2.269531 -5.734375 2.539062 -5.546875 2.875 -5.390625 C 3.21875 -5.234375 3.570312 -5.082031 3.9375 -4.9375 C 4.3125 -4.789062 4.664062 -4.613281 5 -4.40625 C 5.332031 -4.207031 5.601562 -3.941406 5.8125 -3.609375 C 6.019531 -3.285156 6.125 -2.867188 6.125 -2.359375 C 6.125 -1.847656 6 -1.40625 5.75 -1.03125 C 5.5 -0.65625 5.164062 -0.367188 4.75 -0.171875 C 4.332031 0.0234375 3.867188 0.125 3.359375 0.125 Z M 3.359375 0.125 "/></g></g></g><g fill="#1893f8" fill-opacity="1"><g transform="translate(151.691554, 45.886388)"><g><path d="M 6.078125 -8.0625 L 2.125 -8.0625 L 2.125 -4.953125 L 5.578125 -4.953125 L 5.578125 -4.03125 L 2.125 -4.03125 L 2.125 -0.921875 L 6.078125 -0.921875 L 6.078125 0 L 1.171875 0 L 1.171875 -8.984375 L 6.078125 -8.984375 Z M 6.078125 -8.0625 "/></g></g></g><g fill="#1893f8" fill-opacity="1"><g transform="translate(162.680691, 45.886388)"><g><path d="M 4.734375 -4.109375 L 7.390625 0 L 6.296875 0 L 3.75 -4.0625 L 2.046875 -4.0625 L 2.046875 0 L 1.09375 0 L 1.09375 -8.984375 L 4.3125 -8.984375 C 4.769531 -8.984375 5.1875 -8.867188 5.5625 -8.640625 C 5.945312 -8.421875 6.25 -8.117188 6.46875 -7.734375 C 6.695312 -7.359375 6.8125 -6.9375 6.8125 -6.46875 C 6.8125 -6.070312 6.71875 -5.703125 6.53125 -5.359375 C 6.351562 -5.023438 6.109375 -4.742188 5.796875 -4.515625 C 5.484375 -4.296875 5.128906 -4.160156 4.734375 -4.109375 Z M 2.046875 -4.96875 L 4.25 -4.96875 C 4.707031 -4.96875 5.085938 -5.109375 5.390625 -5.390625 C 5.703125 -5.671875 5.859375 -6.039062 5.859375 -6.5 C 5.859375 -6.945312 5.703125 -7.3125 5.390625 -7.59375 C 5.078125 -7.882812 4.695312 -8.03125 4.25 -8.03125 L 2.046875 -8.03125 Z M 2.046875 -4.96875 "/></g></g></g><g fill="#1893f8" fill-opacity="1"><g transform="translate(174.208796, 45.886388)"><g><path d="M 6.515625 -8.984375 L 7.5625 -8.984375 L 4.3125 0 L 3.25 0 L 0 -8.984375 L 1.0625 -8.984375 L 3.796875 -1.234375 Z M 6.515625 -8.984375 "/></g></g></g><g fill="#1893f8" fill-opacity="1"><g transform="translate(185.781814, 45.886388)"><g><path d="M 1.171875 0 L 1.171875 -8.984375 L 2.125 -8.984375 L 2.125 0 Z M 1.171875 0 "/></g></g></g><g fill="#1893f8" fill-opacity="1"><g transform="translate(193.072987, 45.886388)"><g><path d="M 5.34375 0.125 C 4.707031 0.125 4.109375 0.00390625 3.546875 -0.234375 C 2.992188 -0.472656 2.503906 -0.804688 2.078125 -1.234375 C 1.660156 -1.660156 1.332031 -2.148438 1.09375 -2.703125 C 0.851562 -3.253906 0.734375 -3.851562 0.734375 -4.5 C 0.734375 -5.132812 0.851562 -5.726562 1.09375 -6.28125 C 1.332031 -6.832031 1.660156 -7.320312 2.078125 -7.75 C 2.503906 -8.175781 2.992188 -8.507812 3.546875 -8.75 C 4.109375 -8.988281 4.707031 -9.109375 5.34375 -9.109375 C 6.207031 -9.109375 6.992188 -8.890625 7.703125 -8.453125 C 8.410156 -8.023438 8.960938 -7.460938 9.359375 -6.765625 L 8.53125 -6.3125 C 8.226562 -6.863281 7.789062 -7.304688 7.21875 -7.640625 C 6.65625 -7.984375 6.03125 -8.15625 5.34375 -8.15625 C 4.675781 -8.15625 4.066406 -7.988281 3.515625 -7.65625 C 2.960938 -7.332031 2.519531 -6.894531 2.1875 -6.34375 C 1.851562 -5.789062 1.6875 -5.175781 1.6875 -4.5 C 1.6875 -3.8125 1.851562 -3.191406 2.1875 -2.640625 C 2.519531 -2.085938 2.960938 -1.648438 3.515625 -1.328125 C 4.066406 -1.003906 4.675781 -0.84375 5.34375 -0.84375 C 6.03125 -0.84375 6.65625 -1.007812 7.21875 -1.34375 C 7.789062 -1.6875 8.226562 -2.132812 8.53125 -2.6875 L 9.359375 -2.21875 C 8.960938 -1.519531 8.410156 -0.953125 7.703125 -0.515625 C 6.992188 -0.0859375 6.207031 0.125 5.34375 0.125 Z M 5.34375 0.125 "/></g></g></g><g fill="#1893f8" fill-opacity="1"><g transform="translate(206.93664, 45.886388)"><g><path d="M 6.078125 -8.0625 L 2.125 -8.0625 L 2.125 -4.953125 L 5.578125 -4.953125 L 5.578125 -4.03125 L 2.125 -4.03125 L 2.125 -0.921875 L 6.078125 -0.921875 L 6.078125 0 L 1.171875 0 L 1.171875 -8.984375 L 6.078125 -8.984375 Z M 6.078125 -8.0625 "/></g></g></g></svg>