<svg xmlns="http://www.w3.org/2000/svg" xmlns:xlink="http://www.w3.org/1999/xlink" width="300" zoomAndPan="magnify" viewBox="0 0 224.87999 66" height="88" preserveAspectRatio="xMidYMid meet" version="1.0"><defs><g/><clipPath id="897baabbc3"><path d="M 6.597656 18 L 38 18 L 38 45.125 L 6.597656 45.125 Z M 6.597656 18 " clip-rule="nonzero"/></clipPath><clipPath id="4509904c9c"><path d="M 37 3.898438 L 68.0625 3.898438 L 68.0625 32 L 37 32 Z M 37 3.898438 " clip-rule="nonzero"/></clipPath></defs><g clip-path="url(#897baabbc3)"><path fill="#5e17eb" d="M 27.355469 37.417969 L 27.355469 41.171875 L 10.363281 33.273438 L 10.363281 30.230469 L 27.355469 22.335938 L 27.355469 26.085938 L 14.503906 31.71875 L 14.503906 31.789062 Z M 37.449219 18.164062 L 9.027344 18.164062 C 7.6875 18.164062 6.597656 19.25 6.597656 20.59375 L 6.597656 42.910156 C 6.597656 44.253906 7.6875 45.339844 9.027344 45.339844 L 29.558594 45.339844 L 37.449219 18.164062 " fill-opacity="1" fill-rule="nonzero"/></g><g clip-path="url(#4509904c9c)"><path fill="#0f1120" d="M 64.492188 19.128906 L 47.496094 26.917969 L 47.496094 23.164062 L 60.632812 17.535156 L 60.632812 17.464844 L 47.496094 11.835938 L 47.496094 8.082031 L 64.492188 15.871094 Z M 45.339844 3.914062 L 37.449219 31.089844 L 65.824219 31.089844 C 67.167969 31.089844 68.253906 30 68.253906 28.660156 L 68.253906 6.339844 C 68.253906 5 67.167969 3.914062 65.824219 3.914062 L 45.339844 3.914062 " fill-opacity="1" fill-rule="nonzero"/></g><g fill="#0f1120" fill-opacity="1"><g transform="translate(73.120374, 25.285491)"><g><path d="M 9.390625 0 L 12.5 0 L 7.734375 -13.234375 L 4.46875 -13.234375 L -0.28125 0 L 2.828125 0 L 3.640625 -2.484375 L 8.578125 -2.484375 Z M 4.40625 -4.921875 L 6.109375 -10.171875 L 7.8125 -4.921875 Z M 4.40625 -4.921875 "/></g></g></g><g fill="#0f1120" fill-opacity="1"><g transform="translate(86.110314, 25.285491)"><g><path d="M 1.40625 0 L 4.328125 0 L 4.328125 -13.234375 L 1.40625 -13.234375 Z M 1.40625 0 "/></g></g></g><g fill="#0f1120" fill-opacity="1"><g transform="translate(92.596523, 25.285491)"><g><path d="M 5.375 0.171875 C 7.84375 0.171875 9.9375 -1.28125 9.9375 -3.75 C 9.9375 -8.640625 3.859375 -7.4375 3.859375 -9.71875 C 3.859375 -10.46875 4.4375 -10.828125 5.140625 -10.828125 C 5.890625 -10.828125 6.640625 -10.40625 7.296875 -9.6875 L 9.234375 -11.53125 C 8.265625 -12.65625 6.796875 -13.40625 5.15625 -13.40625 C 3.0625 -13.40625 0.921875 -12.15625 0.921875 -9.5 C 0.921875 -5 7.03125 -6.09375 7.03125 -3.765625 C 7.03125 -3.046875 6.421875 -2.5625 5.40625 -2.5625 C 4.1875 -2.5625 3.234375 -3.234375 2.75 -4.28125 L 0.359375 -2.78125 C 1.21875 -1.125 3.0625 0.171875 5.375 0.171875 Z M 5.375 0.171875 "/></g></g></g><g fill="#0f1120" fill-opacity="1"><g transform="translate(103.822736, 25.285491)"><g><path d="M 5.375 0.171875 C 7.84375 0.171875 9.9375 -1.28125 9.9375 -3.75 C 9.9375 -8.640625 3.859375 -7.4375 3.859375 -9.71875 C 3.859375 -10.46875 4.4375 -10.828125 5.140625 -10.828125 C 5.890625 -10.828125 6.640625 -10.40625 7.296875 -9.6875 L 9.234375 -11.53125 C 8.265625 -12.65625 6.796875 -13.40625 5.15625 -13.40625 C 3.0625 -13.40625 0.921875 -12.15625 0.921875 -9.5 C 0.921875 -5 7.03125 -6.09375 7.03125 -3.765625 C 7.03125 -3.046875 6.421875 -2.5625 5.40625 -2.5625 C 4.1875 -2.5625 3.234375 -3.234375 2.75 -4.28125 L 0.359375 -2.78125 C 1.21875 -1.125 3.0625 0.171875 5.375 0.171875 Z M 5.375 0.171875 "/></g></g></g><g fill="#0f1120" fill-opacity="1"><g transform="translate(115.048952, 25.285491)"><g><path d="M 9.390625 0 L 12.5 0 L 7.734375 -13.234375 L 4.46875 -13.234375 L -0.28125 0 L 2.828125 0 L 3.640625 -2.484375 L 8.578125 -2.484375 Z M 4.40625 -4.921875 L 6.109375 -10.171875 L 7.8125 -4.921875 Z M 4.40625 -4.921875 "/></g></g></g><g fill="#0f1120" fill-opacity="1"><g transform="translate(128.038892, 25.285491)"><g><path d="M 7.609375 0.171875 C 11.375 0.171875 14.40625 -2.859375 14.40625 -6.609375 C 14.40625 -10.359375 11.375 -13.40625 7.609375 -13.40625 C 3.859375 -13.40625 0.8125 -10.359375 0.8125 -6.609375 C 0.8125 -2.859375 3.859375 0.171875 7.609375 0.171875 Z M 7.609375 -2.671875 C 5.375 -2.671875 3.6875 -4.390625 3.6875 -6.609375 C 3.6875 -8.84375 5.375 -10.5625 7.609375 -10.5625 C 9.859375 -10.5625 11.546875 -8.84375 11.546875 -6.609375 C 11.546875 -4.390625 9.859375 -2.671875 7.609375 -2.671875 Z M 7.609375 -2.671875 "/></g></g></g><g fill="#0f1120" fill-opacity="1"><g transform="translate(144.049203, 25.285491)"><g><path d="M 6.71875 0.171875 C 9.859375 0.171875 12.234375 -1.734375 12.234375 -4.234375 L 12.234375 -13.234375 L 9.328125 -13.234375 L 9.328125 -4.78125 C 9.328125 -3.4375 8.203125 -2.40625 6.71875 -2.40625 C 5.265625 -2.40625 4.140625 -3.4375 4.140625 -4.78125 L 4.140625 -13.234375 L 1.234375 -13.234375 L 1.234375 -4.234375 C 1.234375 -1.734375 3.640625 0.171875 6.71875 0.171875 Z M 6.71875 0.171875 "/></g></g></g><g fill="#0f1120" fill-opacity="1"><g transform="translate(158.295792, 25.285491)"><g><path d="M 1.40625 0 L 4.328125 0 L 4.328125 -13.234375 L 1.40625 -13.234375 Z M 1.40625 0 "/></g></g></g><g fill="#cb6ce6" fill-opacity="1"><g transform="translate(35.39037, 43.794218)"><g><path d="M 1.09375 0 L 3.5625 0 C 6.03125 0 8.0625 -2.015625 8.0625 -4.5 C 8.0625 -6.984375 6.03125 -9 3.5625 -9 L 1.09375 -9 Z M 2.046875 -0.953125 L 2.046875 -8.046875 L 3.546875 -8.046875 C 5.53125 -8.046875 7.09375 -6.53125 7.09375 -4.5 C 7.09375 -2.46875 5.53125 -0.953125 3.546875 -0.953125 Z M 2.046875 -0.953125 "/></g></g></g><g fill="#cb6ce6" fill-opacity="1"><g transform="translate(48.193601, 43.794218)"><g><path d="M 1.171875 0 L 2.125 0 L 2.125 -9 L 1.171875 -9 Z M 1.171875 0 "/></g></g></g><g fill="#cb6ce6" fill-opacity="1"><g transform="translate(55.494772, 43.794218)"><g><path d="M 5.390625 -4.765625 L 5.390625 -3.875 L 9 -3.875 C 8.71875 -2.125 7.21875 -0.84375 5.40625 -0.84375 C 3.375 -0.84375 1.734375 -2.453125 1.734375 -4.5 C 1.734375 -6.546875 3.375 -8.15625 5.40625 -8.15625 C 6.765625 -8.15625 7.96875 -7.421875 8.578125 -6.3125 L 9.40625 -6.78125 C 8.625 -8.171875 7.125 -9.125 5.40625 -9.125 C 2.828125 -9.125 0.78125 -7.046875 0.78125 -4.5 C 0.78125 -1.953125 2.828125 0.125 5.40625 0.125 C 7.953125 0.125 10.015625 -1.953125 10.015625 -4.5 L 10.015625 -4.765625 Z M 5.390625 -4.765625 "/></g></g></g><g fill="#cb6ce6" fill-opacity="1"><g transform="translate(70.291941, 43.794218)"><g><path d="M 1.171875 0 L 2.125 0 L 2.125 -9 L 1.171875 -9 Z M 1.171875 0 "/></g></g></g><g fill="#cb6ce6" fill-opacity="1"><g transform="translate(77.593111, 43.794218)"><g><path d="M 6.078125 -9 L 0.140625 -9 L 0.140625 -8.046875 L 2.625 -8.046875 L 2.625 0 L 3.578125 0 L 3.578125 -8.046875 L 6.078125 -8.046875 Z M 6.078125 -9 "/></g></g></g><g fill="#cb6ce6" fill-opacity="1"><g transform="translate(87.817728, 43.794218)"><g><path d="M 6.53125 0 L 7.578125 0 L 4.3125 -9 L 3.25 -9 L 0 0 L 1.046875 0 L 1.78125 -2.09375 L 5.796875 -2.09375 Z M 2.09375 -3.015625 L 3.796875 -7.859375 L 5.46875 -3.015625 Z M 2.09375 -3.015625 "/></g></g></g><g fill="#cb6ce6" fill-opacity="1"><g transform="translate(99.406611, 43.794218)"><g><path d="M 2.0625 -0.953125 L 2.0625 -9 L 1.09375 -9 L 1.09375 0 L 5.40625 0 L 5.40625 -0.953125 Z M 2.0625 -0.953125 "/></g></g></g><g fill="#cb6ce6" fill-opacity="1"><g transform="translate(108.956582, 43.794218)"><g/></g></g><g fill="#cb6ce6" fill-opacity="1"><g transform="translate(116.587578, 43.794218)"><g><path d="M 3.359375 0.125 C 4.890625 0.125 6.140625 -0.796875 6.140625 -2.375 C 6.140625 -5.4375 1.75 -4.6875 1.75 -6.828125 C 1.75 -7.71875 2.484375 -8.15625 3.328125 -8.15625 C 4.015625 -8.15625 4.59375 -7.875 4.953125 -7.359375 L 5.703125 -8 C 5.203125 -8.625 4.328125 -9.125 3.296875 -9.125 C 1.921875 -9.125 0.796875 -8.21875 0.796875 -6.75 C 0.796875 -3.859375 5.171875 -4.578125 5.171875 -2.34375 C 5.171875 -1.375 4.375 -0.84375 3.375 -0.84375 C 2.359375 -0.84375 1.625 -1.390625 1.3125 -2.21875 L 0.4375 -1.703125 C 0.90625 -0.59375 2.03125 0.125 3.359375 0.125 Z M 3.359375 0.125 "/></g></g></g><g fill="#cb6ce6" fill-opacity="1"><g transform="translate(127.172, 43.794218)"><g><path d="M 6.09375 -8.0625 L 6.09375 -9 L 1.171875 -9 L 1.171875 0 L 6.09375 0 L 6.09375 -0.9375 L 2.125 -0.9375 L 2.125 -4.03125 L 5.578125 -4.03125 L 5.578125 -4.96875 L 2.125 -4.96875 L 2.125 -8.0625 Z M 6.09375 -8.0625 "/></g></g></g><g fill="#cb6ce6" fill-opacity="1"><g transform="translate(138.176195, 43.794218)"><g><path d="M 4.734375 -4.109375 C 5.921875 -4.28125 6.828125 -5.265625 6.828125 -6.484375 C 6.828125 -7.890625 5.703125 -9 4.3125 -9 L 1.09375 -9 L 1.09375 0 L 2.0625 0 L 2.0625 -4.0625 L 3.75 -4.0625 L 6.296875 0 L 7.390625 0 Z M 2.0625 -4.984375 L 2.0625 -8.046875 L 4.265625 -8.046875 C 5.15625 -8.046875 5.859375 -7.40625 5.859375 -6.515625 C 5.859375 -5.59375 5.171875 -4.984375 4.265625 -4.984375 Z M 2.0625 -4.984375 "/></g></g></g><g fill="#cb6ce6" fill-opacity="1"><g transform="translate(149.720099, 43.794218)"><g><path d="M 6.53125 -9 L 3.796875 -1.234375 L 1.0625 -9 L 0 -9 L 3.25 0 L 4.3125 0 L 7.578125 -9 Z M 6.53125 -9 "/></g></g></g><g fill="#cb6ce6" fill-opacity="1"><g transform="translate(161.308976, 43.794218)"><g><path d="M 1.171875 0 L 2.125 0 L 2.125 -9 L 1.171875 -9 Z M 1.171875 0 "/></g></g></g><g fill="#cb6ce6" fill-opacity="1"><g transform="translate(168.61014, 43.794218)"><g><path d="M 5.359375 0.125 C 7.078125 0.125 8.578125 -0.828125 9.375 -2.21875 L 8.546875 -2.6875 C 7.9375 -1.578125 6.734375 -0.84375 5.359375 -0.84375 C 3.328125 -0.84375 1.6875 -2.453125 1.6875 -4.5 C 1.6875 -6.546875 3.328125 -8.15625 5.359375 -8.15625 C 6.734375 -8.15625 7.9375 -7.421875 8.546875 -6.3125 L 9.375 -6.78125 C 8.578125 -8.171875 7.078125 -9.125 5.359375 -9.125 C 2.8125 -9.125 0.734375 -7.046875 0.734375 -4.5 C 0.734375 -1.953125 2.8125 0.125 5.359375 0.125 Z M 5.359375 0.125 "/></g></g></g><g fill="#cb6ce6" fill-opacity="1"><g transform="translate(182.492792, 43.794218)"><g><path d="M 6.09375 -8.0625 L 6.09375 -9 L 1.171875 -9 L 1.171875 0 L 6.09375 0 L 6.09375 -0.9375 L 2.125 -0.9375 L 2.125 -4.03125 L 5.578125 -4.03125 L 5.578125 -4.96875 L 2.125 -4.96875 L 2.125 -8.0625 Z M 6.09375 -8.0625 "/></g></g></g></svg>