<svg id="visual" viewBox="0 0 900 450" width="900" height="450" xmlns="http://www.w3.org/2000/svg" xmlns:xlink="http://www.w3.org/1999/xlink" version="1.1"><rect x="0" y="0" width="900" height="450" fill="#000036"></rect><path d="M0 72L21.5 70.8C43 69.7 86 67.3 128.8 70C171.7 72.7 214.3 80.3 257.2 90.2C300 100 343 112 385.8 117.5C428.7 123 471.3 122 514.2 121.3C557 120.7 600 120.3 642.8 112C685.7 103.7 728.3 87.3 771.2 80.3C814 73.3 857 75.7 878.5 76.8L900 78L900 0L878.5 0C857 0 814 0 771.2 0C728.3 0 685.7 0 642.8 0C600 0 557 0 514.2 0C471.3 0 428.7 0 385.8 0C343 0 300 0 257.2 0C214.3 0 171.7 0 128.8 0C86 0 43 0 21.5 0L0 0Z" fill="#282162" stroke-linecap="round" stroke-linejoin="miter"></path></svg>