<svg id="visual" viewBox="0 0 960 540" width="960" height="540" xmlns="http://www.w3.org/2000/svg" xmlns:xlink="http://www.w3.org/1999/xlink" version="1.1"><rect x="0" y="0" width="960" height="540" fill="#282162"></rect><path d="M0 111L14.5 117.7C29 124.3 58 137.7 87.2 139.3C116.3 141 145.7 131 174.8 125.5C204 120 233 119 262 115.7C291 112.3 320 106.7 349 115.3C378 124 407 147 436.2 149.8C465.3 152.7 494.7 135.3 523.8 133C553 130.7 582 143.3 611 150C640 156.7 669 157.3 698 160.3C727 163.3 756 168.7 785.2 173.7C814.3 178.7 843.7 183.3 872.8 168.7C902 154 931 120 945.5 103L960 86L960 0L945.5 0C931 0 902 0 872.8 0C843.7 0 814.3 0 785.2 0C756 0 727 0 698 0C669 0 640 0 611 0C582 0 553 0 523.8 0C494.7 0 465.3 0 436.2 0C407 0 378 0 349 0C320 0 291 0 262 0C233 0 204 0 174.8 0C145.7 0 116.3 0 87.2 0C58 0 29 0 14.5 0L0 0Z" fill="#000036" stroke-linecap="round" stroke-linejoin="miter"></path></svg>